<?xml version="1.0" encoding="UTF-8" standalone="no" ?>
<!DOCTYPE svg PUBLIC "-//W3C//DTD SVG 1.1//EN" "http://www.w3.org/Graphics/SVG/1.1/DTD/svg11.dtd">
<svg xmlns="http://www.w3.org/2000/svg" xmlns:xlink="http://www.w3.org/1999/xlink" version="1.1" width="640" height="640" viewBox="0 0 640 640" xml:space="preserve">
<desc>Created with Fabric.js 4.6.0</desc>
<defs>
</defs>
<g transform="matrix(2.08 0 0 2.08 2.87 244.69)" id="rW6wokYQqTyJZgrnSKJHX"  >
<path style="stroke: rgb(0,0,0); stroke-width: 1; stroke-dasharray: none; stroke-linecap: butt; stroke-dashoffset: 0; stroke-linejoin: miter; stroke-miterlimit: 4; fill: rgb(255,255,255); fill-opacity: 0; fill-rule: nonzero; opacity: 1;" vector-effect="non-scaling-stroke"  transform=" translate(0, 0)" d="M 0 0" stroke-linecap="round" />
</g>
<g transform="matrix(3.34 0 0 2.08 320.32 333.83)" id="VoVUQCZef4jKbeJX0M_7f"  >
<path style="stroke: rgb(61,140,69); stroke-width: 0; stroke-dasharray: none; stroke-linecap: butt; stroke-dashoffset: 0; stroke-linejoin: miter; stroke-miterlimit: 4; fill: rgb(91,200,253); fill-rule: nonzero; opacity: 1;" vector-effect="non-scaling-stroke"  transform=" translate(0, 0)" d="M -95.72174 -75.89789 C -95.72174 -86.8463 -90.19067 -95.72174000000001 -83.36774 -95.72174000000001 L 82.78971999999999 -95.72174000000001 L 82.78971999999999 -95.72174000000001 C 89.93187999999999 -95.72174000000001 95.72174999999999 -86.43103 95.72174999999999 -74.97035000000001 L 95.72174999999999 75.89788999999998 L 95.72174999999999 75.89788999999998 C 95.72174999999999 86.84629999999997 90.19067999999999 95.72173999999998 83.36774999999999 95.72174999999997 L 45.069479999999984 95.72174999999997 L 45.069479999999984 95.72174999999997 C 33.47014999999998 95.72174999999997 21.893599999999985 94.07388999999998 10.475389999999983 90.79745999999997 L -28.18897000000002 79.70280999999997 L -28.18897000000002 79.70280999999997 C -42.48774000000002 75.59980999999998 -57.18864000000002 76.98472999999997 -71.08999000000003 83.74436999999998 L -82.29328000000002 89.19205999999997 L -82.29328000000002 89.19205999999997 C -85.44728000000002 90.72571999999997 -88.86756000000003 89.77216999999997 -91.51435000000002 86.62128999999997 C -94.16114000000002 83.47041999999998 -95.72175000000001 78.49445999999998 -95.72175000000001 73.20611999999997 z" stroke-linecap="round" />
</g>
<g transform="matrix(1.45 0 0 0.7 440.88 174)" id="IVhi2a4uXUAx3ltQD-npt"  >
<path style="stroke: rgb(61,140,69); stroke-width: 0; stroke-dasharray: none; stroke-linecap: butt; stroke-dashoffset: 0; stroke-linejoin: miter; stroke-miterlimit: 4; fill: rgb(91,200,253); fill-rule: nonzero; opacity: 1;" vector-effect="non-scaling-stroke"  transform=" translate(0, 0)" d="M -95.72174 -75.89789 C -95.72174 -86.8463 -91.43963 -95.72174000000001 -86.15737 -95.72174000000001 L 85.70987000000001 -95.72174000000001 L 85.70987000000001 -95.72174000000001 C 91.23928000000001 -95.72174000000001 95.72175000000001 -86.43103 95.72175000000001 -74.97035000000001 L 95.72175000000001 75.89788999999998 L 95.72175000000001 75.89788999999998 C 95.72175000000001 86.84629999999997 91.43964000000001 95.72173999999998 86.15738000000002 95.72173999999998 L -86.15735999999998 95.72173999999998 L -86.15735999999998 95.72173999999998 C -91.43961999999998 95.72173999999998 -95.72172999999998 86.84629999999999 -95.72172999999998 75.89788999999999 z" stroke-linecap="round" />
</g>
</svg>